<svg id="Layer_1" data-name="Layer 1" xmlns="http://www.w3.org/2000/svg" viewBox="0 0 1080 1080"><defs><style>.cls-1{fill:#1a79ff;stroke-width:0}</style></defs><path class="cls-1" d="M218.74 129.7c-6.66 14.9-13.57 29.2-19.54 43.88-27.35 67.26-41.17 136.89-35.03 209.71 7.22 85.56 37.28 162.27 90.46 229.79 46.25 58.73 103.82 103.02 171.39 134.77 42.36 19.9 86.75 33.27 132.65 41.25 32 5.56 64.5 8.7 97.05 7.22 25.06-1.13 42.54-15.77 55.64-36.2 8.28-12.91 15.92-26.17 25.89-38.01 23.66-28.11 54.04-42.77 89.89-48.47 28.09-4.46 55.62-3.65 83.21 2.99 35.44 8.53 61.24 30.43 82.29 58.85 7.96 10.74 15.31 21.94 21.56 33.83 1.47 2.8 4.64 5.62 3.02 8.52-1.37 2.45-5.32 1.23-8.15 1.23-32.53 0-65.06.47-97.57-.23-21.83-.47-42.58 14.89-42.99 38.21-.68 38.3-1.71 76.64.53 114.88 1.23 21.11 17.52 34.27 39.1 34.28 34.13.02 68.27-.06 102.4-.17 4.94-.02 9.76-.1 5.75 6.93-17.5 30.73-36.53 60.37-67.35 79.62-34.21 21.37-72.08 24.85-111.31 21.09-29.89-2.86-57.9-10.6-82.35-28.77-16.74-12.44-29.19-28.61-39.9-46.24-13.1-21.57-31.58-32.35-57.38-31.33-44.75 1.77-89.48.48-134.07-3.78-133.08-12.69-245.45-67.63-335.55-166.49-46.45-50.97-78.82-110.37-100.02-176.05-19.45-60.25-28.58-121.97-25.52-185.04 3.69-76.23 20.8-149.1 61.15-215.1 21.76-35.59 48.65-66.38 84.26-88.95 2.89-1.83 5.36-3.31 10.52-2.24Z"/><path d="M630.69 774.21c-90.58-4.16-175.27-27.68-251.55-77.42-87.58-57.1-148.16-135.09-178.18-235.92-1.48-4.98-1.83-9.05.78-14.47 3.85-7.98 2.73-16.67-3.54-24.26-12.82-15.54-11.82-33.38 1.4-48.75 5.83-6.79 6.75-15.37 2.65-23.37-10.96-21.39-8.17-36.19 10.22-50.48 6.2-4.82 9.63-16.51 7.18-24.5-6.37-20.8.32-36.34 19.79-45.95 7.9-3.9 12.48-13.52 10.75-22.55-3.96-20.65 8.67-38.39 29.62-41.6 8.1-1.24 15.12-9.87 15.01-18.44-.27-20.34 15.55-36.24 35.71-35.9 10.42.18 15.86-4.5 17.46-15.04 3.03-19.88 23.36-33.03 42.96-27.78 9.77 2.61 17.71-1.94 20.65-11.85 6.32-21.26 29.65-30.58 49.43-19.75 9.2 5.04 19.69 1.88 24.44-7.35 9.99-19.44 33.56-23.7 49.14-8.88 7.1 6.75 17.16 5.83 23.18-2.13C567.57 4.9 586 1.18 600.1 9.28c2.84 1.63 5.17 3.71 6.9 6.56 6.57 10.84 15.9 12.12 25.48 3.58 14.54-12.95 40.77-6.54 48.36 11.83 2.75 6.64 14.91 10.64 21.07 6.92 20.89-12.63 41.78-4.39 47.72 18.82 1.98 7.76 14.38 14.13 22.26 11.45 22.49-7.66 41.38 5.46 42.07 29.22.19 6.63 11.61 15.58 18.57 14.56 24.15-3.56 40.07 11.98 36.74 35.87-1.08 7.76 5.42 15.82 13.35 16.55 24.54 2.26 35.93 19.54 28.33 42.96-2.02 6.22 5.98 19.21 12.84 20.83 23.36 5.53 32.43 28.57 19.35 49.15-3.1 4.88 1.98 19.89 7.57 22.34 21.39 9.36 26.5 32.76 11 50.38-5.51 6.27-4.37 17.59 2.31 22.89 16.96 13.44 16.88 37.41-.15 50.93-5.55 4.4-6.96 16.61-2.65 22.87 12.85 18.65 10.14 35.47-7.76 48.16-7.41 5.25-11.01 17.41-7.62 25.78 8.13 20.11 1.33 37.07-18.3 45.64-8.59 3.75-14.74 16.24-12.65 25.67 4.13 18.58-7.15 36.57-25.53 39.58-7.23 1.18-12.02 5.21-14.94 10.89-2.72 5.28-6.23 6.07-11.38 5.98-22.99-.43-45.6 2.32-67.64 9.09-38.58 11.84-68 35.62-89.76 69.25-4.37 6.75-8.27 13.8-12.59 20.58-11.36 17.81-26.62 28.54-48.82 26.69-4.47-.37-9-.05-13.51-.05ZM848 399.03c-.5-146.77-119.72-265.79-265.68-265.23-146.98.56-264.79 119.69-264.36 267.34.42 145.65 120.21 263.11 267.91 262.7 143.43-.4 262.62-120.81 262.13-264.81Z" style="fill:#cbcbcb;stroke-width:0"/><path class="cls-1" d="M340.4 397.39c.8-133.29 109.89-244.25 248.87-240.87 128.13 3.12 237.15 107.29 235.87 245.04-1.24 133.69-109.79 240.47-244.38 239.65-133.29-.81-240.99-109.9-240.37-243.82Zm439.03-2.68c2-3.73 1.37-6.98 1.09-10.08-1.6-18.24-5.02-36.12-11.27-53.37-9.28-25.61-22.88-48.49-43.24-66.92-1.93-1.75-4.4-7.11-7.38-.19-9.33 21.66-19.22 43.08-28.35 64.83-3.57 8.51 5.84 31.85 14.07 35.29 24.93 10.4 50.05 20.33 75.08 30.44ZM637.2 211.7c-3.53-3.1-7.42-3.91-11.08-4.65-27.41-5.56-54.94-6.37-82.29.02-16.21 3.78-31.83 9.38-46.22 18.14-5.21 3.17-5.36 5-.61 8.95 16.72 13.88 32.98 28.31 49.63 42.26 8.31 6.97 34.11 6.04 40.5-1.8 16.94-20.76 33.39-41.91 50.06-62.92Zm120.56 275.92c-26.36-2.14-50.98-3.02-75.63-3.09-14.15-.04-28.73 12.64-30.01 26.75-1.58 17.58-2.15 35.24-3.68 52.82-1.1 12.67-.3 13.72 11.87 8.89 41.92-16.66 72.78-46.07 97.45-85.38Zm-248.84 8.9c-1.05.14-3.01.21-4.87.68-18.02 4.57-36.03 9.16-54.01 13.85-11.1 2.89-11.35 3.41-3.99 12.55 16.58 20.61 37.41 35.74 61.61 46.16 11.76 5.06 23.83 9.39 36.52 11.55 3.05.52 7.54 2.24 5.98-4.68-4.38-19.4-8.04-38.96-12.44-58.35-2.14-9.43-18.67-21.78-28.8-21.76Zm-110.27-70.36c18.7-11.05 36.08-21.13 53.26-31.55 10.34-6.27 17.07-28.13 10.62-38.64-12.28-20-25.87-39.2-40.05-60.42-20.9 42.24-34.07 83.58-23.83 130.61Zm295.83-190.95c-1.06-5.83-7.21-5.48-10.63-8.44-5.93-5.15-10.12-3.26-14.22 3.05-16.53 25.39-32.73 50.98-47.69 77.33-7.91 13.93-7.31 13.24 6.13 22.01 9.1 5.93 12.97 3.01 17.37-5.01 13.65-24.86 27.76-49.48 41.61-74.24 2.64-4.72 4.9-9.66 7.43-14.7Zm82.3 202.21c1.2-9.79-6.8-8.89-11.45-10.09-29.17-7.49-58.3-15.18-87.96-20.66-13.21-2.44-13.14-2.99-15.52 10.04-.46 2.53-.39 5.16-.97 7.65-1.33 5.7 1.41 8.47 6.56 9.59 7.2 1.56 14.39 3.14 21.62 4.51 23.94 4.54 47.95 8.71 71.81 13.6 11.89 2.44 12.92 2.32 15.22-9.56.37-1.89.52-3.82.69-5.08ZM411.5 487.07c1.82-.69 3.3-1.32 4.83-1.82 28.56-9.37 56.03-21.52 83.68-33.18 17.6-7.42 17.27-7.62 8.46-25.25-2.78-5.55-5.06-7.3-11.55-4.69-29.06 11.68-57.14 25.46-85.44 38.78-12.79 6.02-12.89 5.87-6.79 18.33 1.6 3.26 1.98 7.73 6.82 7.83Zm200.54 62.77c.05-24.81-5.24-49.23-5.42-73.95-.04-5.79-2.6-7.27-7.73-6.47-2.85.44-5.76.48-8.61.92-13.16 2.02-13.11 2.04-12.13 15.71 2.09 29.09 5.64 58.02 9.12 86.97 1.72 14.36 1.11 14.43 15.46 12.71.64-.08 1.29-.22 1.92-.15 5.97.66 7.76-2.09 7.51-7.86-.41-9.28-.11-18.59-.11-27.89ZM520.26 349.1c1.35-1.09 2.64-1.96 3.73-3.03 3.4-3.33 6.47-7.07 10.16-10.04 5.59-4.51 5.11-8.07.45-13.32-21.2-23.87-44.15-46.02-66.58-68.68-2.82-2.85-6.17-9.59-11.04-2.52-3.83 5.57-16.46 7.8-6.9 19.12 21.39 25.36 43.59 49.97 65.81 74.58 1.24 1.37 2.78 2.48 4.37 3.89Z"/></svg>