<?xml version="1.0" encoding="UTF-8"?>
<svg id="Layer_1" data-name="Layer 1" xmlns="http://www.w3.org/2000/svg" viewBox="0 0 2160 705.21">
  <defs>
    <style>
      .cls-1 {
        fill: #1a79ff;
      }

      .cls-1, .cls-2 {
        stroke-width: 0px;
      }

      .cls-2 {
        fill: #cbcbcb;
      }
    </style>
  </defs>
  <g>
    <g>
      <path class="cls-2" d="m386.72,460.43c-.2,1.84-.7,3.34-1.5,4.51-.8,1.18-2.5,2.05-5.08,2.61-2.59.56-6.32.75-11.18.56-4.87-.19-11.46-.73-19.79-1.63-6.99-.75-12.56-1.52-16.68-2.3-4.13-.78-7.35-1.76-9.67-2.94-2.32-1.17-3.9-2.52-4.74-4.05-.85-1.52-1.5-3.32-1.95-5.39l-21.2-75.32c-2.62-8.53-5.25-16.15-7.9-22.84-2.65-6.69-5.79-12.37-9.41-17.06-3.63-4.69-7.98-8.4-13.08-11.14-5.1-2.74-11.14-4.49-18.13-5.24l-20.48-2.21-13.27,123.15c-.18,1.67-.88,3.11-2.11,4.32-1.23,1.22-3.13,2.11-5.72,2.67-2.59.57-5.99.87-10.21.92-4.22.05-9.57-.27-16.07-.97-6.33-.68-11.59-1.5-15.78-2.46-4.19-.96-7.49-1.98-9.9-3.09-2.41-1.1-4.04-2.37-4.9-3.81-.86-1.44-1.19-2.99-1.01-4.66l31.63-293.52c.79-7.33,3.23-12.41,7.33-15.26,4.1-2.84,8.89-3.97,14.39-3.38l83.68,9.02c8.49.91,15.47,1.84,20.93,2.76,5.46.93,10.41,1.88,14.85,2.86,12.79,3.23,24.15,7.66,34.07,13.27,9.92,5.62,18.12,12.44,24.58,20.46,6.46,8.02,11.07,17.2,13.84,27.52,2.76,10.32,3.45,21.9,2.07,34.72-1.17,10.83-3.6,20.55-7.31,29.16-3.71,8.61-8.6,16.13-14.69,22.55-6.09,6.42-13.32,11.79-21.7,16.11-8.39,4.32-17.74,7.53-28.07,9.61,4.58,2.86,8.81,6.17,12.7,9.96,3.89,3.79,7.45,8.26,10.69,13.41,3.24,5.15,6.19,10.94,8.87,17.38,2.67,6.44,5.18,13.66,7.52,21.66l20.36,66.63c1.82,6.6,2.98,11.4,3.5,14.4.52,3.01.69,5.34.51,7Zm-61.05-228.45c1.15-10.66-.3-19.91-4.34-27.76-4.04-7.85-11.39-13.86-22.06-18.04-3.24-1.19-6.96-2.27-11.15-3.22-4.19-.96-10.03-1.84-17.53-2.65l-29.48-3.18-9.88,91.68,33.47,3.61c9.32,1.01,17.61.76,24.84-.73,7.24-1.49,13.4-4.03,18.51-7.61,5.1-3.58,9.12-8.07,12.07-13.48,2.94-5.41,4.79-11.61,5.54-18.61Z"/>
      <path class="cls-2" d="m772.28,493.44c-1.43,3.89-3.15,6.95-5.16,9.17-2.01,2.23-4.83,3.77-8.46,4.64s-8.22,1.21-13.76,1.04c-5.54-.18-12.56-.73-21.05-1.65-9.49-1.03-17.09-2.06-22.79-3.1-5.7-1.04-10.15-2.36-13.34-3.97-3.2-1.61-5.41-3.7-6.65-6.28-1.24-2.57-2.06-5.91-2.46-10l-29.52-210.43-.5-.05-71.14,199.52c-1.25,3.74-2.75,6.74-4.51,8.99-1.76,2.25-4.34,3.87-7.73,4.85-3.39.98-7.9,1.38-13.52,1.19-5.63-.19-13.02-.78-22.17-1.77-9.66-1.05-17.34-2.09-23.04-3.13-5.7-1.04-10.15-2.36-13.34-3.97-3.2-1.61-5.41-3.7-6.65-6.28-1.24-2.57-2.14-5.92-2.71-10.02l-42.89-289.97c-.85-6.16-1.18-10.95-.97-14.38.2-3.43,1.44-5.95,3.72-7.56,2.28-1.61,5.82-2.36,10.61-2.26,4.79.1,11.43.61,19.93,1.53,7.83.85,14.01,1.64,18.57,2.39,4.55.75,7.94,1.71,10.18,2.87,2.23,1.17,3.67,2.67,4.31,4.51.64,1.84,1.04,4.37,1.2,7.59l29.89,253.68.25.03,85.57-239.41c1.01-3.09,2.16-5.58,3.46-7.46,1.3-1.88,3.29-3.22,6-4.03,2.7-.8,6.32-1.17,10.86-1.1,4.54.07,10.56.51,18.05,1.32,7.99.87,14.34,1.72,19.05,2.57,4.71.85,8.29,1.95,10.76,3.31,2.46,1.36,4.17,3.11,5.12,5.23.95,2.12,1.58,4.89,1.88,8.29l34.33,252.39.5.05,83.43-240.65c.79-2.61,1.7-4.83,2.74-6.65,1.04-1.82,2.78-3.15,5.23-3.98,2.45-.83,5.86-1.22,10.24-1.17,4.37.06,10.47.5,18.3,1.35,7.33.79,13.01,1.62,17.04,2.48,4.03.86,6.87,2.3,8.5,4.33,1.63,2.03,2.13,4.82,1.49,8.38-.64,3.56-2.04,8.33-4.21,14.33l-104.65,273.23Z"/>
      <path class="cls-2" d="m1137.31,525.15c1.35,6.21,2.08,11.09,2.2,14.64s-.83,6.1-2.85,7.65c-2.02,1.55-5.39,2.28-10.09,2.19-4.71-.09-11.14-.58-19.3-1.46-8.49-.92-15.1-1.76-19.82-2.53-4.72-.76-8.29-1.66-10.7-2.68s-4.05-2.25-4.91-3.69c-.86-1.44-1.5-3.28-1.93-5.52l-14.7-67.3-121.4-13.15-27.33,60.98c-.92,2.26-2.01,4.12-3.26,5.59-1.26,1.47-3.14,2.53-5.65,3.18-2.51.65-6,.91-10.44.76-4.45-.15-10.26-.61-17.41-1.38-7.66-.83-13.63-1.73-17.9-2.7-4.28-.97-7.15-2.5-8.6-4.6-1.46-2.09-1.75-4.86-.87-8.31s2.63-7.97,5.26-13.58l130.73-275.96c1.31-2.72,2.72-4.89,4.24-6.49,1.52-1.6,3.79-2.71,6.8-3.31,3.01-.6,7.11-.75,12.3-.44,5.19.31,12.03.92,20.52,1.84,9.82,1.06,17.64,2.04,23.44,2.92,5.8.88,10.28,1.96,13.42,3.22,3.15,1.27,5.33,2.9,6.55,4.88,1.21,1.99,2.15,4.62,2.81,7.89l68.88,297.33Zm-122.7-253.12l-.25-.03-60.59,132.43,91.67,9.93-30.83-142.34Z"/>
      <path class="cls-2" d="m1282.08,441.51l-12.31,113.65c-.18,1.67-.89,3.11-2.11,4.32-1.23,1.22-3.13,2.1-5.72,2.67-2.59.56-6.03.86-10.33.9-4.3.04-9.62-.28-15.94-.97-6.49-.7-11.8-1.53-15.91-2.48-4.11-.95-7.41-1.98-9.9-3.09-2.49-1.11-4.16-2.39-5.02-3.83-.86-1.44-1.19-2.99-1.01-4.66l12.31-113.65-69.35-185.68c-2.5-6.5-4.02-11.51-4.56-15.03-.55-3.51.23-6.04,2.34-7.58,2.1-1.54,5.76-2.24,10.97-2.1,5.2.15,12.39.71,21.55,1.7,7.66.83,13.76,1.66,18.31,2.49,4.54.83,8.1,1.85,10.66,3.05,2.56,1.21,4.39,2.62,5.48,4.26,1.09,1.63,2.09,3.68,3,6.14l27.37,83.33c2.67,8.04,5.25,16.49,7.74,25.35,2.49,8.86,4.98,18.15,7.47,27.85l.5.05c4.14-8.65,8.33-17.04,12.58-25.17,4.25-8.13,8.37-15.86,12.37-23.17l44.02-75.09c1.12-2.57,2.39-4.58,3.81-6.03,1.42-1.45,3.43-2.53,6.04-3.26,2.61-.73,6.09-1.02,10.46-.89,4.36.14,10.13.59,17.29,1.37,9.49,1.03,16.84,2.04,22.04,3.02,5.2.99,8.66,2.45,10.39,4.41,1.72,1.96,1.9,4.63.52,8.02-1.38,3.39-3.89,7.92-7.54,13.59l-107.5,166.52Z"/>
      <path class="cls-2" d="m1598.3,573.82c-.52,4.83-1.17,8.84-1.94,12.05-.77,3.2-1.68,5.76-2.73,7.67-1.05,1.91-2.25,3.26-3.6,4.03-1.35.78-2.77,1.09-4.27.93l-162.36-17.59c-5.5-.6-9.94-2.72-13.34-6.37-3.4-3.65-4.7-9.14-3.9-16.47l30.52-281.76c.79-7.33,3.24-12.41,7.34-15.25,4.1-2.84,8.9-3.96,14.39-3.37l161.36,17.48c1.5.16,2.78.72,3.86,1.68,1.07.96,1.91,2.53,2.52,4.7.61,2.17.94,4.9,1.01,8.2.06,3.29-.17,7.44-.71,12.43-.51,4.66-1.14,8.59-1.91,11.8-.77,3.2-1.68,5.76-2.73,7.67-1.05,1.91-2.21,3.26-3.47,4.05-1.27.79-2.65,1.1-4.15.94l-115.4-12.5-8.55,78.93,97.67,10.58c1.5.16,2.82.77,3.97,1.82,1.15,1.05,2.03,2.58,2.66,4.58.62,2.01.97,4.65,1.03,7.95.06,3.29-.16,7.27-.66,11.93-.52,4.83-1.17,8.81-1.92,11.92-.76,3.12-1.66,5.59-2.7,7.42-1.04,1.83-2.23,3.09-3.57,3.78-1.34.7-2.76.97-4.26.8l-97.67-10.58-9.88,91.17,116.4,12.61c1.5.16,2.82.77,3.97,1.82,1.15,1.05,2.03,2.62,2.65,4.71.61,2.09.96,4.78,1.02,8.07.06,3.29-.16,7.35-.69,12.18Z"/>
    </g>
    <path class="cls-1" d="m2153.6,102.89c-2.71,13.15-7.5,25.24-16.77,35.25-6.33,6.85-14.13,11.61-22.5,15.52-10.22,4.79-15.91,12.49-16.7,24.02-.1,1.48-.22,2.95-.32,4.42l-30.02,277.18c-1.45,18.5-4.07,36.85-7.82,55.05-12.06,58.61-41.93,105.96-90.26,141.29-24.91,18.2-52.91,29.74-83.15,36.01-27.75,5.76-55.66,6.85-83.57,2.45-33.74-5.32-65.34-16.44-92.76-37.57-14.8-11.41-27.2-24.85-35.51-41.78-.68-1.38-1.23-2.54-.5-4.79,6.31,3.7,12.33,7.44,18.58,10.81,28.61,15.42,58.92,24.92,91.63,25.69,38.42.91,73.99-8.77,106.6-29.17,28.36-17.76,50.84-41.23,68.23-69.77,10.89-17.89,18.98-36.99,24.74-57.04,3.71-12.88,6.52-26.04,7.64-39.43l30.02-277.18c.1-1.13.18-2.26.25-3.39.71-11.22-4.97-19.7-13.43-26.51-5.33-4.31-10.88-8.35-15.65-13.35-11.37-11.89-16.44-26.12-17.24-42.33-.64-12.72,1.05-24.93,5.34-36.88,5.5-15.37,16.49-25.78,30.15-33.78,5.16-3.02,10.51-5.76,16.09-7.96,1.32-.53,2.73-1.81,3.94-.94,1.02.73.3,2.43.16,3.69-1.57,14.47-2.93,28.97-4.8,43.4-1.28,9.69,4.57,19.67,14.92,20.97,17.01,2.14,34.02,4.45,51.15,5.3,9.44.46,16.09-6.15,17.13-15.74,1.66-15.19,3.27-30.39,4.86-45.58.23-2.2.43-4.34,3.37-2.22,12.83,9.27,25.1,19.17,32.19,33.81,7.86,16.25,7.58,33.27,4.01,50.55Z"/>
    <path class="cls-1" d="m1798.7,568.7c-59.27-6.78-103.38-60.67-95.18-122.35,7.56-56.86,59.17-100.35,120.4-93.15,59.43,6.99,101.71,60.44,94.86,120.29-6.78,59.27-60.52,101.94-120.08,95.2Zm19.97-195.48c-1.56-1.07-3.04-.94-4.43-.97-8.19-.17-16.31.49-24.29,2.44-11.84,2.9-22.68,7.84-31.86,16.02-.87.77-3.38,1.61-.44,3.27,9.19,5.19,18.24,10.63,27.48,15.74,3.61,2,14.46-1.07,16.38-4.56,5.83-10.59,11.46-21.29,17.16-31.94Zm-88.29,54.47c-1.55,1.42-2.1,3.12-2.6,4.7-3.79,11.93-5.48,24.14-3.96,36.61.9,7.39,2.64,14.62,5.84,21.44,1.16,2.47,1.97,2.63,3.95.7,6.98-6.77,14.18-13.31,21.2-20.05,3.5-3.36,4.33-14.89,1.15-18.11-8.42-8.54-17.04-16.88-25.59-25.31Zm128.58-40.35c-2.22,11.63-3.8,22.54-5.02,33.5-.7,6.29,4.24,13.39,10.46,14.64,7.74,1.55,15.58,2.66,23.33,4.18,5.59,1.1,6.09.8,4.53-4.85-5.39-19.46-16.99-34.61-33.29-47.47Zm-8.03,111.15c.01.48-.05,1.35.07,2.2,1.17,8.24,2.34,16.47,3.56,24.7.75,5.08.97,5.21,5.39,2.38,9.97-6.39,17.7-14.92,23.51-25.19,2.82-4.99,5.33-10.15,6.9-15.69.38-1.33,1.36-3.25-1.79-2.88-8.84,1.01-17.72,1.7-26.56,2.72-4.3.5-10.59,7.26-11.07,11.77Zm-36.62,45.67c-4.02-8.85-7.66-17.07-11.47-25.22-2.29-4.9-11.69-8.95-16.68-6.59-9.49,4.5-18.69,9.62-28.82,14.91,17.79,11.34,35.55,19.19,56.97,16.9Zm-70.71-140.83c-2.65.19-2.78,2.95-4.27,4.32-2.58,2.39-1.94,4.35.67,6.48,10.5,8.58,21.11,17.02,32.11,24.95,5.82,4.19,5.54,3.89,10.09-1.67,3.08-3.76,1.97-5.62-1.39-7.97-10.41-7.27-20.68-14.74-31.03-22.09-1.97-1.4-4.06-2.65-6.18-4.02Zm93.94-26.88c-4.3-1-4.28,2.6-5.04,4.61-4.74,12.62-9.56,25.21-13.43,38.14-1.72,5.76-1.96,5.7,3.72,7.39,1.1.33,2.28.42,3.36.8,2.47.86,3.84-.22,4.58-2.45,1.04-3.13,2.09-6.25,3.05-9.4,3.17-10.43,6.18-20.92,9.51-31.3,1.66-5.17,1.66-5.64-3.52-7.23-.82-.25-1.68-.42-2.23-.55Zm4.49,164.93c-.22-.85-.43-1.53-.58-2.24-2.79-13.16-6.87-25.97-10.73-38.83-2.45-8.19-2.56-8.05-10.83-4.98-2.61.97-3.49,1.9-2.64,4.91,3.8,13.49,8.57,26.65,13.14,39.89,2.06,5.98,1.99,6.02,7.83,3.9,1.53-.55,3.54-.51,3.81-2.66Zm37.6-86.21c-11.04-1.22-22.16-.04-33.17-1.15-2.58-.26-3.36.81-3.25,3.13.06,1.29-.06,2.59,0,3.88.26,5.95.28,5.93,6.41,6.16,13.05.47,26.09.29,39.14.13,6.47-.08,6.47.2,6.4-6.27,0-.29-.04-.59.02-.86.58-2.62-.55-3.56-3.13-3.72-4.15-.26-8.28-.85-12.41-1.29Zm-93.74,31.16c-.42-.65-.75-1.27-1.17-1.81-1.32-1.68-2.83-3.22-3.98-5-1.74-2.71-3.34-2.66-5.91-.84-11.64,8.28-22.6,17.43-33.77,26.31-1.4,1.12-4.56,2.28-1.65,4.79,2.29,1.97,2.68,7.7,8.18,3.99,12.31-8.29,24.34-16.99,36.36-25.69.67-.49,1.24-1.12,1.94-1.76Z"/>
    <path class="cls-2" d="m1981.33,444.35v-.02c-.1-.77-.24-1.52-.42-2.25l-1.57-8.47c-2.64-2.14-3.58-7.56-1.75-10.15,5.6-7.97,2.61-18.26-6.37-21.89-3.55-1.43-5.46-6.15-3.89-9.54,4.43-9.53-.73-18.93-11.09-20.24-2.71-.35-6.79-6.15-6.08-8.64,3.02-10.49-3.79-19.23-14.52-18.65-.13,0-.28,0-.43,0-.34-.56-.86-1.08-1.63-1.59-2.39-1.57-3.95-3.89-4.12-7.16-.29-5.17-3.27-9.4-7.52-11.64,0,0,0,0-.02-.01-2.58-1.35-5.65-1.98-8.84-1.62-.93.11-1.92.03-2.9-.2-3.5-.8-6.93-3.53-7.92-6.66-.53-1.69-1.21-3.21-2.03-4.53-2.78-4.53-7.16-6.84-12.55-6.61-1.54.05-3.15.31-4.84.8-3.89,1.1-9.12-1.08-11.1-4.64-.69-1.24-1.43-2.33-2.22-3.29l-.03-.04c-4.71-5.69-11.18-6.55-18.79-2.44-.24.13-.49.24-.76.33-3.07,1.09-7.74-.14-9.29-2.6-2.54-4.02-6.39-6.36-10.44-6.9t-.02,0c-4.24-.56-8.72.84-12.19,4.37-.75.76-1.67,1.3-2.69,1.63-2.62.87-5.79.29-7.61-1.7-5.08-5.55-11.97-6.54-17.39-3.32-2.15,1.27-4.08,3.2-5.55,5.78-.51.89-1.79,1.65-3.3,2.18-1.83.65-4.01.94-5.56.67-.59-.09-1.08-.28-1.44-.57-3.4-2.72-7.14-3.88-10.64-3.67-.08.01-.15.02-.23.02-5.19.42-9.81,3.89-11.94,9.9-.15.44-.42.88-.78,1.3-.72.88-1.81,1.7-3.01,2.34-2.14,1.15-4.64,1.72-6.1,1.07-7.31-3.28-13.66-1.94-17.42,3.2-.03.04-.07.1-.1.15-1.36,1.9-2.37,4.31-2.95,7.18-.09.45-.24.89-.43,1.3-1.28,2.79-4.62,4.59-7.58,3.85-10.48-2.63-18.15,3.7-17.74,14.62.13,3.14-4.41,7.79-7.37,7.55-10.6-.83-17.35,6.94-15.02,17.32.81,3.64-2.62,8.84-6.17,9.35-4.53.65-7.98,2.65-10.09,5.49-.01.02-.03.04-.05.07-1.62,2.21-2.43,4.93-2.3,7.93v.03c.09,2.15.66,4.45,1.75,6.8,1.37,2.92-1,8.14-4.09,9.04-8.54,2.49-12.66,13.85-7.6,20.95,3.34,4.67,2.32,8.77-2.82,11.17-.18.09-.36.18-.53.28-1.09.61-1.97,1.45-2.71,2.47-2.16,2.97-3.04,6.58-2.69,10.06,0,.09,0,.17.02.26.38,3.32,1.88,6.52,4.43,8.92,3.25,3.06,3.17,7.58-.18,10.42-.26.22-.5.44-.74.67-3.33,3.21-4.71,7.41-4.22,11.45.47,3.89,2.68,7.63,6.55,10.18,3.88,2.55,4.78,7.38,2.09,11.22-.6.86-1.1,1.75-1.51,2.64-3.54,7.74-.34,16.73,7.74,20.23.06.03.12.05.18.08,4.27,1.78,5.91,5.54,4.28,9.76-.42,1.1-.72,2.22-.87,3.33-1.09,7.52,3.59,15.13,11.15,17.12.35.1.69.2,1.01.31,3.14,1.08,4.72,2.98,4.91,5.94.06.69.03,1.45-.07,2.26-1.12,8.95,5.19,16.75,14.26,17.61,3.81.37,7.31,3.9,7.48,7.56.42,9.48,7.71,15.95,17.09,15.19,4.1-.34,8.16,2.17,9.52,5.86,3.33,9.13,9.93,12.85,19.49,11.03,3.67-.71,8.71,1.38,10.55,4.38,5.47,8.87,11.92,10.82,21.97,6.98,3.75-1.44,7.53-.61,10.27,2.31,6.2,6.62,14.09,7.92,21.62,2.97,3.69-2.43,7.61-2.5,10.97-.4,2.29,1.42,4.11,1.46,6.4,1.05,17.33-3.18,33.44-8.41,48.38-15.63,11.86-5.73,22.97-12.7,33.37-20.88,11.49-9,22.08-19.5,31.81-31.4,7.99-9.77,14.91-20.02,20.82-30.71,13.2-23.82,21.45-49.8,25.75-77.48.22-2,.29-4.04.68-6.01.5-2.62.59-5.06.29-7.34Zm-182.04,134.52c-12.12-1.27-23.61-4.3-34.25-8.78-.34-.14-.65-.28-.97-.42-46.53-20.1-76.52-68.32-70.99-121.32,6.79-64.97,65.49-112.28,130.82-105.43,2.91.31,5.78.72,8.63,1.24,59.7,10.83,103,67.22,96.57,128.16-6.93,65.74-64.98,113.39-129.8,106.55Z"/>
  </g>
  <g>
    <path class="cls-2" d="m350.16,692.19c-26.97,0-53.93-.03-80.9.02-5.72.01-10.09-2.09-12.47-7.34-3.57-7.89,2.01-16.73,10.83-17.21,3.5-.19,7.03-.19,10.53-.03,1.85.08,2.52-.58,2.84-2.27,1.42-7.41,2.97-14.81,4.41-22.22,2-10.26,9.81-16.73,20.51-16.74,23.14-.04,46.29-.01,69.43-.01,6.61,0,13.23-.05,19.84.02,10.24.11,18.05,6.6,20.04,16.55,1.44,7.21,2.97,14.4,4.3,21.62.41,2.24,1.09,3.34,3.69,3.07,2.86-.29,5.78-.08,8.67-.04,7.52.1,13.04,5.3,13.06,12.27.02,7.06-5.37,12.29-12.95,12.3-27.28.05-54.55.02-81.83.02Zm38.1-32.52c-.03-2.98-2.6-5.52-5.54-5.48-2.94.04-5.46,2.65-5.42,5.6.04,2.86,2.46,5.22,5.38,5.25,3.04.04,5.6-2.43,5.57-5.38Zm-70.36-5.53c-2.91,0-5.46,2.63-5.43,5.59.04,2.93,2.33,5.25,5.27,5.32,3.07.07,5.55-2.3,5.59-5.33.03-2.97-2.51-5.58-5.43-5.59Z"/>
    <path class="cls-2" d="m294.79,465.13c.71-.06,1.43-.17,2.14-.17,35.44,0,70.88,0,106.32,0,.82,0,1.64.12,2.46.18,1.2.66,2.29,2.01,3.81.58,4,1.76,6.03,5.35,5.25,9.27-.81,4.05-4.02,6.71-8.33,6.83-2.06.06-4.14.14-6.19-.03-1.88-.15-2.42.59-2.72,2.34-.84,4.92-1.94,9.8-2.92,14.7-1.26,6.29-6.54,11.06-12.99,11.09-20.86.11-41.72.11-62.57,0-6.54-.04-11.77-4.85-13.06-11.4-.93-4.7-1.93-9.39-2.75-14.11-.33-1.9-.96-2.85-3.13-2.62-2.04.22-4.13.12-6.19.01-4.74-.25-8.17-3.82-8.15-8.35.03-4.68,3.51-8.13,8.37-8.31.22.47.44.45.65,0Z"/>
    <path class="cls-2" d="m193.74,546.76c10.06-5.8,19.68-11.34,29.29-16.88,24.06-13.88,48.13-27.75,72.19-41.63,3.27-1.89,3.25-1.87,3.93,1.68.65,3.41,1.37,6.8,2.05,10.2.77,3.82,2.42,7.25,5.52,9.66,2.48,1.93,1.52,2.6-.59,3.79-12.26,6.95-24.45,14.02-36.67,21.05-19.53,11.24-39.07,22.45-58.57,33.74-1.93,1.12-2.66,1.51-3.21-1.29-1.68-8.47-6.38-15.13-13.94-20.33Z"/>
    <path class="cls-2" d="m506.75,546.75c-1.23.98-2.29,1.75-3.27,2.61-5.52,4.82-9.15,10.74-10.42,17.94-.37,2.13-.91,2.35-2.82,1.23-10.83-6.33-21.74-12.53-32.61-18.77-21.21-12.19-42.41-24.4-63.66-36.52-2.01-1.15-2.12-1.74-.3-3.17,3.27-2.58,5.05-6.11,5.84-10.15.68-3.5,1.42-7,2.06-10.51.4-2.17,1.02-2.88,3.34-1.53,22.22,12.91,44.5,25.71,66.76,38.54,10.69,6.16,21.38,12.31,32.07,18.48.95.55,1.88,1.15,3.01,1.85Z"/>
    <path class="cls-2" d="m227.51,568.4c-3.31-.77-5.85,0-7.1,3.43-.1.28-.34.51-.5.77q-3.25,5.05-8.94,1.47c7.13-3.11,12.3-8.6,20.99-8.57,79.97.31,159.94.18,239.91.18.93,0,1.88-.11,2.79.03,3.81.58,4.82,2.6,2.9,5.77-1.31,2.18-2.66,4.33-4.02,6.53,4.49,1.43,5.6,1.04,7.79-2.6q2.87-4.78,8.14-1.12c-6.06,3.46-11.46,6.99-19.2,6.96-81.2-.3-162.4-.19-243.6-.16-2.62,0-5.12-.1-7.41-2.44,2.69.47,3.86-.89,4.87-2.76,1.26-2.34,2.75-4.55,4.14-6.82.37-.9-.06-.93-.75-.68Zm108.84,9.75c2.32-.02,4.81,1.58,6.21-.19,2.29-2.88,4.02-6.2,6.36-9.93-2.91.66-5.4-.95-6.93,1.14-2.09,2.85-3.78,5.97-5.64,8.98Zm-51.71.56c2.65-.43,5.18,1.03,6.67-.9,2.21-2.86,3.88-6.14,6.28-10.06-2.89,1.09-5.45-.72-7.07,1.55-2.01,2.81-3.68,5.85-5.88,9.41Zm-34.28.13c2.65-.61,5.18.85,6.63-.94,2.26-2.81,3.89-6.11,5.78-9.21-2.36.18-4.86-1.73-6.47.51-2.06,2.87-3.73,6.01-5.94,9.65Zm102.89-.15c2.57-.29,5.05.87,6.27-.59,2.39-2.89,4.14-6.3,6.55-10.13-2.93.75-5.43-.91-6.94,1.16-2.07,2.85-3.73,6-5.89,9.56Zm29.92-10.82c-2.76.88-5.25-.77-6.75,1.21-2.17,2.86-3.87,6.08-6.16,9.77,2.88-.79,5.45,1.12,7.13-1.53,1.79-2.82,3.49-5.7,5.78-9.45Zm4.28,10.78c2.56-.26,5.13.95,6.44-.62,2.37-2.83,4.05-6.22,6.43-10.04-2.96.81-5.55-1.07-7.24,1.56-1.82,2.82-3.53,5.7-5.63,9.1Zm29.8-10.49c-2.62.27-5.15-.84-6.31.56-2.39,2.88-4.09,6.31-6.49,10.19,2.91-.78,5.37.91,6.9-1.27,2.02-2.87,3.73-5.96,5.89-9.47Zm4.42,10.57c2.77-.42,5.27.91,6.63-.82,2.24-2.84,3.88-6.15,6.23-10.02-2.76.87-5.22-.8-6.75,1.2-2.14,2.81-3.82,5.97-6.11,9.64Zm16.99.27c2.75-.85,5.26.71,6.66-1.03,2.32-2.88,4.05-6.22,6.03-9.36-.18-.2-.35-.4-.53-.6-2.03,1.05-4.69-1.22-6.39,1.56-1.74,2.86-3.5,5.71-5.78,9.43Zm30.1-11.05c-2.68.77-5.23-.8-6.68,1.05-2.21,2.83-3.85,6.11-5.99,9.64,2.61-.34,5.08,1.07,6.55-.87,2.19-2.87,3.85-6.12,6.12-9.82Zm-201.18,10.67c2.67-.37,5.16,1.15,6.76-1.01,2.1-2.84,3.78-5.97,5.96-9.48-2.65.58-5.17-1.09-6.77,1.04-2.12,2.82-3.79,5.97-5.94,9.45Zm51.34.2c2.74-.67,5.24.98,6.74-1.07,2.12-2.9,3.8-6.12,6.12-9.95-2.84,1.05-5.4-.8-7.02,1.55-1.94,2.82-3.61,5.82-5.84,9.47Zm-85.57-.1c2.68-.5,5.12,1.04,6.63-.99,2.15-2.89,3.87-6.08,5.77-9.15-2.44.52-5.09-1.8-6.79.92-1.77,2.83-3.47,5.69-5.62,9.22Zm81.17-10.61c-2.73.51-5.24-.99-6.72.99-2.17,2.88-3.83,6.13-6,9.71,2.73-.68,5.3,1.03,6.9-1.24,1.98-2.8,3.62-5.85,5.82-9.45Z"/>
    <path class="cls-2" d="m290.68,626.08c-8.23,5.32-10.05,13.59-11.35,22.08-.27,1.79-.54,2.57-2.56,1.39-27.76-16.11-55.55-32.16-83.33-48.22-.17-.1-.31-.25-.68-.55,8.31-5.19,13.45-12.51,15.19-22.48,27.64,15.96,55.01,31.77,82.73,47.77Z"/>
    <path class="cls-2" d="m421.82,650.68c-1.75-9.36-2.58-18.81-11.92-24.52,7.7-4.47,15.02-8.73,22.35-12.97,19.31-11.15,38.65-22.26,57.93-33.48,2.07-1.2,2.61-1.26,3.18,1.33,1.65,7.44,5.83,13.39,12.02,17.95.81.59,1.84.97,2.37,2.08-28.48,16.44-56.95,32.87-85.94,49.61Z"/>
    <path class="cls-2" d="m550.83,573.48c-.06,14.76-11.92,26.52-26.74,26.53-14.98,0-26.74-11.83-26.69-26.85.05-14.66,12.14-26.54,26.86-26.41,14.78.13,26.64,12.06,26.58,26.73Zm-12.88,0c.1-7.65-6.05-13.84-13.81-13.9-7.57-.06-13.75,5.93-13.93,13.49-.17,7.7,5.88,14.07,13.51,14.22,7.88.15,14.12-5.91,14.22-13.81Z"/>
    <path class="cls-2" d="m203.3,574.2c-.75,15.25-13.02,26.53-28.02,25.76-14.66-.75-25.95-13.05-25.28-27.55.69-14.97,13.01-26.32,27.85-25.65,14.51.65,26.14,13.2,25.44,27.44Zm-26.61,13.08c7.56.03,13.85-6.32,13.82-13.94-.03-7.5-6.18-13.69-13.67-13.77-7.71-.08-14.04,6.03-14.14,13.62-.1,7.74,6.18,14.05,13.99,14.09Z"/>
    <path class="cls-2" d="m71.64,628.45c0,2.74,1.03,6.21-.28,8.02-1.4,1.92-5.19.92-7.93,1.16-14.8,1.33-29.62,2.57-44.43,3.78-8.1.66-14.95-5.27-14.99-12.86-.04-7.76,6.82-13.63,15.15-12.93,16.36,1.36,32.71,2.79,49.08,4.01,2.85.21,4.08.96,3.62,3.92-.25,1.6-.04,3.26-.04,4.89-.05,0-.11,0-.16,0Z"/>
    <path class="cls-2" d="m88.03,596.62c0-7.35-.02-14.7,0-22.06.01-5.11,2.17-7.31,7.29-7.36,9.61-.09,19.22-.07,28.82-.23,2.02-.03,2.73.47,2.59,2.54-.21,3.15,1.07,7.28-.51,9.21-1.63,1.99-5.99.57-9.15.67-4.44.14-8.89.23-13.32.08-2.59-.09-3.52.51-3.49,3.34.16,14.8.07,29.61.05,44.42,0,5.37-2.28,7.57-7.74,7.57-4.34,0-8.68-.13-13.02.05-2.25.1-2.99-.66-2.62-2.74.02-.1,0-.2,0-.31.05-3.05-1.01-6.89.47-8.93,1.44-1.99,5.57-.56,8.5-.58,1.93-.01,2.17-.82,2.16-2.39-.05-7.76-.02-15.52-.03-23.28Z"/>
    <path class="cls-2" d="m147.9,559.55c-3.11,7.35-3.85,14.62-1.87,22.08.24.89.49,1.77.8,2.64q1.18,3.31-2.23,3.31c-2.89,0-5.78-.01-8.67,0-2.77.01-4.22-1.24-4.21-4.07.03-6.63.03-13.27,0-19.9-.01-2.81,1.34-4.11,4.17-4.07,3.9.04,7.8.01,12.01.01Z"/>
    <path class="cls-2" d="m409.52,465.71c-1.52,1.43-2.61.08-3.81-.58,1.35-.32,2.62-.13,3.81.58Z"/>
    <path class="cls-2" d="m294.79,465.13c-.21.46-.43.48-.65,0h.65Z"/>
  </g>
</svg>